HIERARCHY
ROOT Hips
{
	OFFSET 0.000000 0.000000 0.000000
	CHANNELS 6 Xposition Yposition Zposition Xrotation Yrotation Zrotation
	JOINT LeftUpLeg_virtual
	{
		OFFSET 0.000000 0.000000 0.000000
		CHANNELS 3 Xrotation Yrotation Zrotation
		JOINT LeftUpLeg
		{
			OFFSET 15.427100 -6.655098 0.678600
			CHANNELS 3 Xrotation Yrotation Zrotation
			JOINT LeftLeg
			{
				OFFSET 4.081073 -39.591068 13.024000
				CHANNELS 3 Xrotation Yrotation Zrotation
				JOINT LeftFoot
				{
					OFFSET -4.081074 -37.707932 -15.979700
					CHANNELS 3 Xrotation Yrotation Zrotation
					JOINT LeftToeBase
					{
						OFFSET 5.346399 -15.068900 20.645000
						CHANNELS 3 Xrotation Yrotation Zrotation
						JOINT LeftToe_End
						{
							OFFSET 2.754700 0.931300 11.300900
							CHANNELS 3 Xrotation Yrotation Zrotation
							End Site
							{
								OFFSET 0 0 0
							}
						}
					}
				}
			}
		}
	}
	JOINT RightUpLeg_virtual
	{
		OFFSET 0.000000 0.000000 0.000000
		CHANNELS 3 Xrotation Yrotation Zrotation
		JOINT RightUpLeg
		{
			OFFSET -15.569500 -6.655098 0.678600
			CHANNELS 3 Xrotation Yrotation Zrotation
			JOINT RightLeg
			{
				OFFSET -4.081825 -39.591045 13.023800
				CHANNELS 3 Xrotation Yrotation Zrotation
				JOINT RightFoot
				{
					OFFSET 4.081824 -37.707954 -15.979600
					CHANNELS 3 Xrotation Yrotation Zrotation
					JOINT RightToeBase
					{
						OFFSET -5.346400 -15.068900 20.645000
						CHANNELS 3 Xrotation Yrotation Zrotation
						JOINT RightToe_End
						{
							OFFSET -2.754700 0.931300 11.300900
							CHANNELS 3 Xrotation Yrotation Zrotation
							End Site
							{
								OFFSET 0 0 0
							}
						}
					}
				}
			}
		}
	}
	JOINT Spine_virtual
	{
		OFFSET 0.000000 0.000000 0.000000
		CHANNELS 3 Xrotation Yrotation Zrotation
		JOINT Spine
		{
			OFFSET -0.279200 12.230698 -2.892100
			CHANNELS 3 Xrotation Yrotation Zrotation
			JOINT Spine1
			{
				OFFSET -0.232667 10.192268 -1.242267
				CHANNELS 3 Xrotation Yrotation Zrotation
				JOINT Spine1_split
				{
					OFFSET -0.232667 10.192268 -1.242267
					CHANNELS 3 Xrotation Yrotation Zrotation
					JOINT Spine2
					{
						OFFSET -0.232667 10.192268 -1.242267
						CHANNELS 3 Xrotation Yrotation Zrotation
						JOINT Neck_virtual
						{
							OFFSET 0.000000 0.000000 0.000000
							CHANNELS 3 Xrotation Yrotation Zrotation
							JOINT Neck
							{
								OFFSET -0.418800 17.814194 8.416900
								CHANNELS 3 Xrotation Yrotation Zrotation
								JOINT Head
								{
									OFFSET 0.000000 7.031097 3.806800
									CHANNELS 3 Xrotation Yrotation Zrotation
									JOINT HeadTop_End
									{
										OFFSET 0.000000 24.646606 12.978600
										CHANNELS 3 Xrotation Yrotation Zrotation
										End Site
										{
											OFFSET 0 0 0
										}
									}
								}
							}
						}
						JOINT LeftShoulder_virtual
						{
							OFFSET 0.000000 0.000000 0.000000
							CHANNELS 3 Xrotation Yrotation Zrotation
							JOINT LeftShoulder
							{
								OFFSET 8.476499 7.247704 -3.868750
								CHANNELS 3 Xrotation Yrotation Zrotation
								JOINT LeftShoulder_split
								{
									OFFSET 8.476499 7.247704 -3.868750
									CHANNELS 3 Xrotation Yrotation Zrotation
									JOINT LeftArm
									{
										OFFSET 9.308998 -2.777710 0.208600
										CHANNELS 3 Xrotation Yrotation Zrotation
										JOINT LeftForeArm
										{
											OFFSET 29.972298 0.000000 0.000000
											CHANNELS 3 Xrotation Yrotation Zrotation
											JOINT LeftHand
											{
												OFFSET 26.026505 0.000000 0.000000
												CHANNELS 3 Xrotation Yrotation Zrotation
												End Site
												{
													OFFSET 0 0 0
												}
											}
										}
									}
								}
							}
						}
						JOINT RightShoulder_virtual
						{
							OFFSET 0.000000 0.000000 0.000000
							CHANNELS 3 Xrotation Yrotation Zrotation
							JOINT RightShoulder
							{
								OFFSET -7.570500 7.247704 -3.868750
								CHANNELS 3 Xrotation Yrotation Zrotation
								JOINT RightShoulder_split
								{
									OFFSET -7.570500 7.247704 -3.868750
									CHANNELS 3 Xrotation Yrotation Zrotation
									JOINT RightArm
									{
										OFFSET -9.308998 -2.777710 0.208500
										CHANNELS 3 Xrotation Yrotation Zrotation
										JOINT RightForeArm
										{
											OFFSET -29.972300 0.000000 0.000000
											CHANNELS 3 Xrotation Yrotation Zrotation
											JOINT RightHand
											{
												OFFSET -26.026505 0.000000 0.000000
												CHANNELS 3 Xrotation Yrotation Zrotation
												End Site
												{
													OFFSET 0 0 0
												}
											}
										}
									}
								}
							}
						}
					}
				}
			}
		}
	}
}
MOTION
Frames: 4
Frame Time: 0.03333333
1.382837 88.641060 -51.793549 0.000000 0.000000 0.000000 174.062972 -67.392753 176.826194 -24.784866 10.552679 20.477390 30.980130 -0.605981 -4.656307 -7.019828 -0.780916 -4.185556 1.436145 5.130588 -6.727757 0.000000 0.000000 0.000000 173.725848 -65.372328 176.562890 -3.318579 -9.567173 10.239773 17.703106 9.270009 2.462359 -15.396916 2.438976 -6.968661 1.228679 -3.762034 -0.777732 0.000000 0.000000 0.000000 171.579529 -66.430577 172.707207 3.894029 2.196087 3.517240 -3.401679 1.351642 -2.334587 0.653394 -1.323560 0.242489 0.000000 0.000000 0.000000 -5.042130 1.609189 -1.997730 1.698757 19.610443 7.590638 5.280119 27.515514 -15.371231 0.000000 0.000000 0.000000 -5.231337 2.174658 -2.222950 0.854670 0.661525 1.095111 -0.436328 -0.778401 -0.599039 12.746362 0.364989 -66.932828 7.868950 -21.281273 -8.077881 0.000000 0.000000 0.000000 -4.524657 1.841988 -2.736744 2.707591 -5.474577 17.953842 -4.658993 -1.017533 -0.726204 10.571115 33.237948 53.869979 14.938466 29.841745 -1.341510 0.000000 0.000000 0.000000 
0.682383 89.109383 -53.142197 0.000000 0.000000 0.000000 173.739180 -62.222299 176.530979 -24.480665 3.123577 15.518702 31.271885 -0.522108 -4.045595 -6.865528 -0.125168 -4.332472 0.327075 5.732981 -6.930485 0.000000 0.000000 0.000000 173.534329 -59.517203 176.467786 -2.537148 -7.256501 11.838899 17.904023 11.913899 3.715758 -15.246645 1.794131 -8.290951 -0.206185 -3.746923 -1.085703 0.000000 0.000000 0.000000 172.268750 -60.783861 173.177985 4.385615 2.799379 3.279090 -3.327572 1.830827 -2.444495 0.634798 -1.196602 0.339855 0.000000 0.000000 0.000000 -4.995924 2.038967 -2.168103 1.344124 17.863844 7.612204 4.457910 25.044169 -14.155956 0.000000 0.000000 0.000000 -5.270505 2.619591 -2.324992 0.739693 0.550727 1.423689 -0.182466 -0.815803 -0.437454 13.788601 1.220488 -68.554090 8.912572 -20.286842 -8.173580 0.000000 0.000000 0.000000 -4.475634 2.253013 -2.872203 2.704841 -5.724618 18.134087 -4.591712 -1.340497 -0.620319 9.583534 35.439789 54.010110 15.167514 28.830768 -1.751775 0.000000 0.000000 0.000000 
-0.144686 89.625832 -54.463646 0.000000 0.000000 0.000000 173.303660 -57.019116 176.089339 -25.120698 -3.760579 10.926818 30.579590 -1.180023 -3.312199 -6.057933 0.042211 -5.801647 -1.208132 6.319670 -7.104427 0.000000 0.000000 0.000000 173.449048 -53.703824 176.530337 -1.527334 -5.223591 13.219083 18.363727 14.255964 5.015937 -15.025171 1.061303 -9.804441 -1.347981 -3.739255 -1.205148 0.000000 0.000000 0.000000 172.825602 -55.254134 173.619898 4.830493 3.292501 2.745085 -3.126131 2.207585 -2.332068 0.685251 -0.867722 0.346696 0.000000 0.000000 0.000000 -4.835368 2.392355 -2.136249 1.078747 15.800958 7.201904 3.111202 21.652168 -12.264585 0.000000 0.000000 0.000000 -5.199671 2.979164 -2.182164 0.624196 0.434681 1.699246 0.086067 -0.968993 -0.403652 14.548327 1.788768 -70.144274 9.620015 -18.438719 -8.402967 0.000000 0.000000 0.000000 -4.323902 2.575546 -2.770398 2.730957 -6.036461 18.091598 -4.507053 -1.598691 -0.434952 8.442725 37.852635 54.454496 15.226109 27.544917 -2.119904 0.000000 0.000000 0.000000 
-1.099760 90.006584 -55.763329 0.000000 0.000000 0.000000 173.175061 -51.651417 176.017035 -26.461242 -9.256600 7.115868 29.209488 -2.358004 -2.701360 -4.689058 -0.183565 -8.059059 -2.478732 6.822382 -7.374017 0.000000 0.000000 0.000000 173.537936 -48.036806 176.692909 -0.467370 -3.569595 14.428600 18.998998 16.456984 6.210201 -14.433518 0.377201 -11.265448 -2.605231 -3.699244 -1.297780 0.000000 0.000000 0.000000 173.434800 -50.013145 174.264818 5.267878 3.646726 2.022795 -2.819641 2.462747 -2.025712 0.860953 -0.330620 0.234257 0.000000 0.000000 0.000000 -4.560037 2.649943 -1.924927 1.012544 13.441703 6.402239 1.515325 17.460801 -9.949510 0.000000 0.000000 0.000000 -5.019906 3.241392 -1.829642 0.518880 0.378618 1.889191 0.407383 -1.269910 -0.493394 15.153043 2.202077 -71.502771 9.942009 -16.323548 -8.735168 0.000000 0.000000 0.000000 -4.077955 2.800876 -2.472699 2.787555 -6.401878 17.758555 -4.357773 -1.722688 -0.159638 7.224773 40.238495 55.238800 15.153338 26.372590 -2.490907 0.000000 0.000000 0.000000 
